# xmcd
#
# Track frame offsets:
#	150
#	17102
#	40360
#	53420
#	71520
#	99110
#	121992
#	135395
#	155140
#	171084
#
# Disc length: 2478 seconds
#
# Revision: 1
# Processed by: cddbd v1.5.2PL0 Copyright (c) Steve Scherf et al.
# Submitted via: EasyCDDAExtractor 11.1.0.1
#
DISCID=7a09ac0a
DTITLE=Kenny Brown - Goin' Back To Mississippi
DYEAR=1996
DGENRE=Blues
TTITLE0=From Now On
TTITLE1=Frankie And Albert
TTITLE2=Goin' Back To Mississippi
TTITLE3=Wretched Mind
TTITLE4=Jumper On The Line
TTITLE5=Talk About Me
TTITLE6=Grease Monkey
TTITLE7=I'm A Lover
TTITLE8=Hold Me Baby
TTITLE9=In The Mood
EXTD=
EXTT0=
EXTT1=
EXTT2=
EXTT3=
EXTT4=
EXTT5=
EXTT6=
EXTT7=
EXTT8=
EXTT9=
PLAYORDER=
